<svg width="48" height="48" viewBox="0 0 48 48" fill="none" xmlns="http://www.w3.org/2000/svg">
<path fill-rule="evenodd" clip-rule="evenodd" d="M36.5625 0C43.5 0 48 4.5 48 11.4375V36.5625C48 43.5 43.5 48 36.5625 48H11.4375C4.5 48 0 43.5 0 36.5625V11.4375C0 4.5 4.5 0 11.4375 0H36.5625Z" fill="#1877F2"/>
<path fill-rule="evenodd" clip-rule="evenodd" d="M25.1086 47.7625V29.171H19.0688V22.4854H25.1086V17.5831C25.1086 17.5831 24.6742 7.39307 33.4926 7.39307H40.6259V14.2047H36.181C36.181 14.2047 32.9098 14.0272 32.8742 17.4034V22.4854H40.0651L39.028 29.171H32.803V48.0001H25.1086V47.7625Z" fill="white"/>
</svg>
