<svg width="72" height="64" viewBox="0 0 72 64" fill="none" xmlns="http://www.w3.org/2000/svg">
<path d="M7.88923 32.6603C7.88923 38.4103 12.5 43.0875 18.184 43.0875H27.8007C28.4036 43.0875 28.8732 42.5127 28.8732 42.0055V22.8977C28.8738 22.3173 29.1017 21.7608 29.5069 21.3504C29.9121 20.94 30.4615 20.7091 31.0346 20.7086C31.4097 20.7081 31.7784 20.8067 32.1043 20.9947C32.4302 21.1827 32.7021 21.4536 32.8931 21.7805L44.9733 42.8763C45.0762 43.0442 45.2301 43.1737 45.4119 43.2454C45.5937 43.3171 45.7936 43.3271 45.9814 43.2739C46.1693 43.2206 46.335 43.1071 46.4537 42.9503C46.5724 42.7934 46.6377 42.6018 46.6396 42.4043V22.8977C46.6402 22.3173 46.8681 21.7608 47.2733 21.3504C47.6785 20.94 48.2279 20.7091 48.801 20.7086C49.1761 20.7081 49.5448 20.8067 49.8707 20.9947C50.1966 21.1827 50.4685 21.4536 50.6595 21.7805L62.7277 42.8749C62.8305 43.0427 62.9844 43.1722 63.1661 43.2439C63.3478 43.3156 63.5476 43.3257 63.7354 43.2725C63.9233 43.2194 64.089 43.106 64.2077 42.9493C64.3265 42.7926 64.3918 42.6011 64.3939 42.4035V17.1133H60.6039V32.1667L53.5139 19.809C52.5116 18.0732 50.6106 16.9768 48.5868 16.9768C45.4174 16.9768 42.841 19.5813 42.841 22.7914V32.1675L35.7511 19.8097C34.7459 18.0746 32.8449 16.979 30.8232 16.979C27.6539 16.979 25.0775 19.5834 25.0775 22.7936V38.1976C25.0796 38.758 24.6632 39.2466 24.0574 39.248H18.2124C16.4872 39.248 14.8327 38.5539 13.6129 37.3183C12.393 36.0828 11.7077 34.407 11.7077 32.6596C11.7077 30.9123 12.393 29.2365 13.6129 28.0009C14.8327 26.7654 16.4872 26.0712 18.2124 26.0712H23.1083V22.2331H18.1713C12.5071 22.2331 7.88923 26.9032 7.88923 32.6603ZM65.6552 17.1148V42.405C65.6546 42.9854 65.4267 43.5419 65.0215 43.9523C64.6163 44.3628 64.0668 44.5936 63.4938 44.5942C63.1188 44.5947 62.7501 44.4962 62.4242 44.3083C62.0983 44.1204 61.8264 43.8497 61.6353 43.5229L49.5657 22.4271C49.4628 22.2593 49.309 22.1298 49.1273 22.0581C48.9456 21.9864 48.7458 21.9763 48.5579 22.0295C48.3701 22.0826 48.2043 22.196 48.0856 22.3527C47.9668 22.5094 47.9015 22.7009 47.8994 22.8985V42.405C47.8988 42.9854 47.671 43.5419 47.2657 43.9523C46.8605 44.3628 46.3111 44.5936 45.738 44.5942C45.3623 44.5947 44.9929 44.4955 44.6668 44.3064C44.3407 44.1173 44.0693 43.845 43.8795 43.5165L31.8 22.4271C31.6461 22.1613 31.3446 21.9961 31.0318 21.9961C30.7938 21.9968 30.5658 22.0929 30.3976 22.2633C30.2293 22.4337 30.1345 22.6646 30.1337 22.9056V42.0055C30.1337 43.2628 29.0428 44.3671 27.7986 44.3671H18.1833C15.1188 44.3641 12.1807 43.1297 10.0138 40.9349C7.84687 38.7401 6.62817 35.7642 6.62517 32.6603C6.62817 29.5564 7.84687 26.5805 10.0138 24.3858C12.1807 22.191 15.1188 20.9566 18.1833 20.9536H23.1204V17.1148H18.1961C9.71935 17.1148 2.84717 24.0746 2.84717 32.6611C2.84717 41.2475 9.71226 48.2074 18.1961 48.2074H27.9043C31.5815 48.2095 33.9465 46.0268 33.9337 42.0012V33.1338L41.0237 45.4915C42.026 47.2274 43.9271 48.3237 45.9508 48.3237C49.1202 48.3237 51.6966 45.7193 51.6966 42.5099V33.1338L58.7865 45.4915C59.7895 47.2274 61.6906 48.3237 63.7137 48.3237C66.883 48.3237 69.4594 45.7193 69.4594 42.5099V17.1148H65.6552Z" fill="white"/>
</svg>
