<svg width="20" height="20" viewBox="0 0 20 20" fill="none" xmlns="http://www.w3.org/2000/svg">
<g clip-path="url(#clip0_2202_1430)">
<path d="M19.1668 10.0335C19.1668 4.95232 15.0628 0.833171 10.0002 0.833171C4.93756 0.833171 0.833496 4.95232 0.833496 10.0335C0.833496 14.3483 3.79305 17.9687 7.78572 18.963V12.845H5.89548V10.0335H7.78572V8.82206C7.78572 5.69056 9.19768 4.23911 12.2608 4.23911C12.8415 4.23911 13.8436 4.35338 14.2535 4.46768V7.01633C14.0372 6.99347 13.6614 6.98203 13.1945 6.98203C11.6914 6.98203 11.1107 7.55348 11.1107 9.03923V10.0335H14.1048L13.5905 12.845H11.1107V19.1665C15.6495 18.6163 19.1668 14.7374 19.1668 10.0335Z" fill="#B2D1BB"/>
</g>
<defs>
<clipPath id="clip0_2202_1430">
<rect width="20" height="20" fill="white"/>
</clipPath>
</defs>
</svg>
